<?xml version="1.0" standalone="no"?>
<!DOCTYPE svg PUBLIC "-//W3C//DTD SVG 20010904//EN"
 "http://www.w3.org/TR/2001/REC-SVG-20010904/DTD/svg10.dtd">
<svg version="1.0" xmlns="http://www.w3.org/2000/svg"
 width="48px" height="48px" viewBox="0 0 1600.000000 1063.000000"
 preserveAspectRatio="xMidYMid meet">
<metadata>
Created by potrace 1.16, written by Peter Selinger 2001-2019
</metadata>
<g transform="translate(0.000000,1063.000000) scale(0.100000,-0.100000)"
fill="#000000" stroke="none">
<path d="M7455 10617 c-247 -64 -416 -268 -432 -522 -10 -162 46 -306 166
-426 84 -84 166 -131 262 -151 l59 -12 0 -967 0 -966 -41 -7 c-78 -12 -315
-97 -438 -156 -194 -94 -356 -205 -539 -370 l-100 -89 -1618 1045 c-891 574
-1630 1052 -1643 1062 l-24 18 17 49 c27 74 32 234 12 315 -51 202 -208 362
-406 415 -72 19 -211 19 -284 0 -135 -35 -277 -139 -342 -250 -43 -75 -74
-172 -81 -254 l-6 -76 -61 -30 c-83 -41 -182 -141 -229 -231 -117 -225 -79
-480 98 -660 113 -115 236 -166 400 -166 150 0 274 47 378 142 l55 51 274
-179 c150 -98 580 -376 955 -617 404 -261 676 -443 670 -447 -7 -4 -32 -8 -57
-8 -78 0 -318 -40 -454 -75 -543 -139 -997 -438 -1261 -830 -107 -160 -201
-394 -227 -563 l-10 -72 -711 2 -710 3 -14 59 c-20 87 -78 190 -149 260 -220
221 -578 221 -798 0 -176 -175 -216 -445 -101 -663 l35 -66 -35 -70 c-116
-231 -78 -482 100 -660 78 -78 158 -124 265 -151 87 -22 241 -15 325 15 169
60 318 223 357 390 l11 51 716 2 c394 2 720 0 725 -4 4 -3 11 -27 14 -53 3
-33 11 -50 27 -61 99 -65 317 -577 429 -1004 60 -231 70 -306 71 -508 l0 -182
25 4 c54 11 263 37 266 33 2 -2 -63 -46 -144 -97 -81 -52 -250 -161 -375 -243
l-229 -149 -41 40 c-92 88 -238 145 -377 146 -164 1 -291 -52 -405 -168 -111
-112 -165 -244 -165 -396 1 -99 13 -148 61 -249 51 -104 147 -204 238 -248
l60 -28 0 -46 c1 -64 35 -190 68 -252 41 -78 165 -197 243 -235 173 -84 336
-84 507 0 238 116 363 390 294 644 -10 38 -22 76 -25 85 -5 12 102 86 486 335
271 175 548 355 616 399 67 44 236 153 375 243 138 90 430 278 647 419 217
140 490 316 605 391 116 74 293 189 395 255 154 101 422 272 467 300 9 5 7 -8
-4 -45 -29 -100 -71 -253 -70 -254 9 -8 642 -163 646 -158 3 3 14 29 23 57
l17 52 -5 -56 -6 -56 106 -13 106 -13 0 -1258 0 -1259 -27 -6 c-212 -46 -385
-208 -444 -414 -7 -25 -13 -90 -12 -145 0 -171 58 -303 184 -419 173 -160 466
-190 659 -68 l45 28 75 -38 c142 -73 299 -85 450 -34 93 32 158 75 229 152 71
78 117 168 136 269 19 97 19 128 -1 222 -34 167 -149 319 -295 392 -43 22 -99
43 -124 47 l-45 6 0 1232 0 1233 128 12 c226 21 242 23 242 30 0 4 -14 62 -31
130 -16 68 -28 125 -26 128 3 2 24 -52 47 -121 23 -69 43 -126 44 -126 3 0
555 188 603 205 8 3 0 39 -28 122 -21 64 -39 119 -39 120 0 5 -6 9 940 -602
228 -148 523 -338 655 -423 132 -85 323 -208 425 -274 102 -66 268 -174 370
-239 102 -66 226 -146 275 -178 359 -233 836 -540 863 -556 22 -13 30 -24 26
-35 -44 -106 -51 -272 -16 -385 56 -184 211 -331 402 -380 94 -25 242 -16 332
18 143 55 240 144 308 282 41 82 60 155 60 231 0 44 0 44 63 75 129 65 257
233 288 380 18 85 6 242 -25 318 -68 168 -198 290 -366 342 -77 24 -209 29
-290 10 -81 -19 -190 -75 -252 -131 l-54 -48 -98 61 c-114 73 -429 276 -565
364 -58 38 -88 63 -76 63 18 0 97 -11 183 -26 l33 -5 -6 128 c-11 200 22 399
119 731 102 348 300 783 380 836 17 11 25 28 30 64 3 28 12 52 19 54 6 1 363
2 793 0 l781 -3 11 -50 c39 -167 188 -330 357 -390 84 -30 238 -37 325 -15
107 27 187 73 265 151 178 178 216 429 100 660 l-35 70 34 65 c199 377 -73
830 -499 830 -96 0 -180 -21 -269 -68 -131 -69 -247 -218 -279 -358 l-14 -59
-779 -3 -779 -2 -19 102 c-76 421 -375 821 -812 1084 -304 183 -641 298 -1009
343 l-140 17 85 55 c47 31 393 255 770 499 377 244 762 494 855 555 94 61 184
119 201 129 l31 19 68 -58 c81 -68 163 -109 263 -130 92 -19 124 -19 219 1
248 51 417 232 453 484 32 222 -92 458 -297 567 l-60 33 -2 57 c-8 239 -187
457 -426 518 -124 32 -284 13 -399 -47 -75 -40 -201 -163 -239 -235 -36 -68
-67 -191 -67 -268 0 -34 9 -97 20 -140 16 -64 18 -81 8 -91 -7 -7 -596 -389
-1308 -849 -712 -461 -1454 -941 -1648 -1066 -194 -126 -359 -229 -365 -229
-7 0 -37 25 -67 56 -132 134 -363 294 -575 399 -126 62 -390 158 -474 171
l-41 7 0 966 0 967 68 17 c192 50 355 224 397 425 41 193 -12 371 -154 513
-183 183 -430 221 -668 102 l-71 -36 -30 22 c-17 12 -61 33 -99 48 -82 31
-245 41 -328 20z m285 -165 c30 -12 83 -44 118 -72 l62 -51 63 51 c91 74 150
94 272 95 92 0 105 -3 168 -32 252 -120 323 -439 142 -650 -73 -85 -200 -143
-316 -143 l-59 0 0 -1017 0 -1018 -265 0 -265 0 0 1018 0 1017 -64 0 c-312 0
-512 312 -382 596 45 98 165 197 273 224 61 15 191 5 253 -18z m5742 -742 c87
-27 167 -86 217 -161 58 -87 74 -150 70 -272 l-4 -100 65 -21 c133 -43 208
-108 264 -225 29 -62 31 -73 31 -176 0 -99 -3 -116 -27 -168 -78 -167 -271
-270 -444 -238 -125 23 -229 94 -295 201 -17 28 -33 50 -36 50 -3 0 -519 -332
-1147 -739 l-1141 -738 -130 -33 c-299 -74 -665 -246 -989 -466 -59 -41 -111
-74 -115 -74 -3 0 -24 28 -46 62 -22 35 -66 95 -97 135 l-57 72 87 57 c48 32
211 137 362 234 806 519 2957 1913 2968 1924 11 11 7 25 -23 82 -65 125 -69
254 -11 379 46 102 164 198 272 224 67 16 158 12 226 -9z m-10718 -29 c229
-113 304 -387 166 -609 -26 -42 -27 -47 -12 -58 9 -6 233 -151 497 -321 264
-170 838 -541 1275 -823 437 -282 973 -628 1190 -768 217 -140 399 -258 403
-262 5 -4 -21 -47 -58 -96 -36 -48 -81 -112 -98 -141 -18 -29 -36 -51 -42 -49
-6 2 -46 29 -89 60 -302 217 -668 393 -975 469 l-126 31 -1130 729 c-621 401
-1135 731 -1141 734 -6 2 -25 -18 -42 -44 -64 -99 -156 -164 -271 -189 -64
-15 -86 -15 -144 -5 -336 57 -473 454 -239 694 59 61 118 96 196 117 34 10 61
21 61 26 -1 5 -5 40 -9 77 -15 124 23 243 107 334 88 96 184 135 323 130 79
-2 100 -7 158 -36z m5377 -2226 c782 -104 1468 -659 1704 -1379 61 -186 85
-328 92 -532 8 -260 -19 -410 -108 -586 -128 -255 -393 -481 -704 -602 -45
-17 -83 -35 -84 -39 -2 -4 25 -89 59 -188 34 -99 61 -182 58 -184 -2 -2 -74
-28 -161 -58 -140 -49 -158 -53 -166 -39 -4 10 -30 81 -56 160 -43 132 -49
143 -69 139 -11 -3 -71 -9 -132 -12 -62 -4 -118 -11 -125 -16 -10 -6 -4 -43
29 -180 23 -95 39 -176 35 -179 -7 -6 -345 -40 -392 -40 -12 0 -13 31 -8 190
l6 190 -129 2 c-72 1 -138 2 -147 2 -16 1 -19 -17 -27 -169 -4 -93 -9 -171
-11 -173 -3 -3 -329 39 -334 44 -2 2 6 70 18 151 12 81 21 155 21 163 0 13
-26 20 -122 33 -67 9 -125 13 -129 9 -4 -4 -26 -74 -49 -157 -23 -82 -43 -151
-44 -152 -2 -3 -348 86 -352 90 -2 1 22 83 51 182 30 99 55 185 55 191 0 6
-18 14 -40 18 -78 12 -258 78 -385 140 -299 147 -478 335 -557 586 -21 69 -23
91 -22 285 1 178 5 232 27 355 125 703 544 1275 1152 1571 337 164 709 229
1046 184z m-3328 -486 c100 -15 245 -52 368 -94 127 -44 386 -170 533 -259 96
-59 276 -183 276 -190 0 -2 -20 -50 -44 -108 -144 -344 -216 -661 -216 -952 0
-330 95 -594 280 -774 l58 -57 -635 -310 c-349 -170 -637 -313 -639 -317 -3
-5 33 -87 80 -185 48 -97 85 -177 84 -178 -20 -14 -285 -112 -290 -107 -3 4
-45 90 -92 191 -47 101 -88 186 -90 189 -7 7 -216 -68 -216 -77 0 -7 156 -366
165 -381 4 -6 -251 -100 -270 -100 -5 0 -34 87 -64 193 -30 105 -57 196 -62
201 -5 6 -179 -43 -210 -60 -4 -2 11 -87 31 -190 26 -128 34 -187 26 -189 -18
-6 -181 -35 -198 -35 -11 0 -21 40 -43 188 -15 103 -29 190 -31 194 -2 3 -49
-6 -104 -20 -117 -30 -107 -3 -82 -234 l18 -157 -31 -5 c-16 -3 -57 -8 -91
-12 l-61 -6 -7 110 c-17 294 -149 763 -319 1143 l-25 56 51 -14 c72 -18 104
-16 128 8 20 20 21 29 16 119 -7 110 -31 229 -53 256 -14 19 -14 19 -29 0 -13
-18 -26 -68 -40 -163 l-7 -43 -36 16 c-39 16 -165 86 -195 108 -24 18 -45 237
-54 551 -5 192 -3 248 11 335 47 284 179 539 389 751 315 316 741 522 1242
599 138 21 370 25 478 9z m6677 -3 c703 -95 1315 -485 1556 -994 120 -252 145
-477 109 -972 -20 -278 -15 -258 -83 -302 -62 -39 -182 -101 -187 -96 -1 2 -9
45 -18 97 -16 98 -38 141 -57 111 -36 -55 -72 -310 -52 -362 15 -36 61 -44
136 -25 39 9 55 11 52 3 -192 -426 -322 -878 -343 -1198 l-6 -100 -66 7 c-103
10 -111 14 -111 44 0 14 7 82 15 151 24 202 32 182 -85 212 l-100 26 -5 -21
c-3 -12 -17 -98 -31 -192 -14 -93 -27 -172 -29 -173 -2 -2 -51 4 -109 14 -86
14 -106 20 -106 34 0 9 15 93 34 186 19 93 32 172 30 176 -2 3 -50 21 -106 38
-70 22 -103 28 -108 20 -3 -6 -31 -96 -60 -200 -30 -105 -59 -190 -65 -190
-13 0 -256 87 -263 95 -3 2 32 88 77 190 44 102 81 190 81 195 0 4 -38 22 -85
39 -144 52 -119 69 -220 -149 -48 -105 -91 -192 -94 -194 -12 -8 -281 107
-281 120 0 6 36 85 81 174 44 90 78 168 76 174 -3 6 -298 152 -656 325 l-651
314 39 33 c50 43 140 162 184 244 160 297 185 727 66 1170 -28 105 -87 282
-121 365 l-29 70 27 20 c85 65 345 219 504 299 239 120 425 187 610 221 99 18
319 18 450 1z m-10747 -1079 c143 -71 225 -196 235 -358 l5 -89 772 0 773 0 6
-92 c3 -51 8 -151 11 -223 3 -71 8 -147 11 -167 l6 -38 -789 -2 -788 -3 -7
-80 c-12 -145 -72 -252 -182 -326 -82 -55 -149 -72 -255 -67 -178 9 -319 117
-372 287 -44 143 -9 294 97 411 19 21 34 40 34 43 0 3 -19 27 -42 54 -23 26
-55 77 -72 113 -28 59 -31 74 -31 165 0 91 3 106 31 166 54 113 136 188 250
229 47 16 77 20 146 17 76 -3 95 -8 161 -40z m14819 22 c114 -38 198 -113 250
-224 30 -65 33 -78 33 -170 0 -91 -3 -106 -31 -165 -17 -36 -49 -87 -72 -113
-23 -27 -42 -51 -42 -54 0 -3 19 -26 41 -51 128 -144 144 -353 38 -511 -76
-114 -183 -174 -321 -179 -107 -5 -173 13 -254 67 -110 74 -170 181 -182 326
l-7 80 -859 3 -858 2 5 22 c3 11 11 128 18 259 l13 239 841 0 842 0 5 89 c6
109 42 194 112 269 49 53 139 106 202 121 69 16 161 12 226 -10z m-5330 -1764
c347 -167 633 -306 635 -309 2 -2 -25 -62 -60 -132 -77 -154 -111 -233 -105
-240 12 -11 555 -226 571 -226 10 1 130 -39 266 -89 137 -49 254 -89 260 -89
6 0 11 5 11 10 0 6 10 10 23 10 33 0 346 -58 360 -67 7 -4 259 -166 561 -361
301 -194 554 -356 561 -358 6 -3 34 26 62 64 134 183 376 232 560 113 74 -48
118 -98 157 -181 29 -60 31 -73 31 -170 0 -97 -2 -110 -31 -170 -57 -119 -141
-189 -273 -231 l-56 -17 0 -124 c0 -120 -1 -125 -33 -191 -43 -87 -117 -161
-201 -201 -61 -29 -74 -31 -176 -31 -104 0 -114 2 -176 32 -141 69 -239 225
-239 381 0 60 28 152 66 216 19 32 33 60 32 61 -2 1 -361 233 -798 515 -437
282 -932 602 -1100 710 -168 108 -458 296 -645 417 -187 120 -531 342 -765
493 -234 150 -427 276 -430 278 -3 3 0 7 6 9 30 11 195 110 239 143 28 22 51
39 53 39 1 1 287 -136 634 -304z m-3911 246 c47 -26 127 -67 179 -91 52 -23
96 -43 98 -45 2 -1 -177 -119 -397 -261 -221 -143 -564 -365 -764 -494 -200
-129 -857 -554 -1460 -945 l-1097 -709 30 -31 c77 -79 110 -240 75 -361 -21
-74 -46 -116 -104 -177 -199 -208 -538 -154 -666 107 -41 81 -54 175 -37 264
7 39 6 55 -2 57 -6 2 -36 11 -67 19 -130 36 -240 146 -281 279 -99 327 224
629 543 507 76 -29 143 -81 192 -150 23 -32 45 -59 49 -59 3 -1 255 160 560
357 304 198 562 364 573 369 11 6 83 21 159 34 108 19 140 21 143 12 3 -7 10
-13 16 -13 7 0 124 41 261 90 137 50 257 90 268 90 20 0 558 215 569 228 4 4
-34 88 -83 187 l-89 180 248 123 c647 319 979 481 989 482 6 0 49 -22 95 -49z
m1497 -788 c117 -16 132 -20 132 -37 0 -17 6 -18 60 -12 33 3 87 9 120 12 l60
7 0 -1295 0 -1295 83 -5 c357 -19 524 -446 274 -702 -94 -95 -233 -141 -359
-119 -80 13 -139 41 -208 98 -30 25 -57 45 -60 45 -3 0 -28 -19 -55 -41 -148
-124 -335 -141 -494 -46 -283 170 -257 588 47 730 55 25 82 32 154 35 l88 4 0
1319 c0 1048 3 1319 13 1319 6 0 72 -8 145 -17z"/>
<path d="M6251 5784 c-42 -54 -40 -189 9 -379 72 -287 209 -525 318 -554 184
-50 792 -53 1062 -6 117 20 145 35 175 96 64 125 102 386 63 425 -16 16 -18
15 -38 -17 -19 -31 -63 -161 -90 -267 l-11 -44 -72 7 c-271 25 -556 128 -788
284 -106 71 -292 228 -321 272 -8 13 -48 57 -87 97 -109 110 -179 138 -220 86z"/>
<path d="M9519 5790 c-19 -10 -96 -81 -170 -158 -155 -160 -236 -230 -363
-314 -224 -147 -510 -248 -772 -273 l-72 -7 -22 69 c-36 108 -77 193 -94 193
-39 0 -47 -97 -20 -227 23 -112 55 -170 107 -193 166 -72 955 -93 1186 -30
101 27 234 243 305 495 95 336 60 523 -85 445z"/>
<path d="M7865 4777 c-88 -29 -132 -81 -120 -140 18 -84 82 -120 215 -121 124
-1 175 33 187 122 7 54 -16 95 -70 121 -56 27 -158 35 -212 18z"/>
<path d="M4408 5813 c-41 -43 -67 -92 -133 -248 -99 -232 -222 -414 -400 -590
-119 -118 -241 -210 -370 -280 -124 -67 -111 -69 -198 38 -88 108 -163 180
-180 174 -7 -2 -11 -22 -10 -51 2 -69 104 -246 192 -335 l43 -44 92 6 c50 3
145 20 211 37 278 71 696 229 827 312 96 62 134 174 145 423 14 326 -60 595
-162 595 -12 0 -37 -17 -57 -37z"/>
<path d="M3329 4170 c-64 -19 -99 -60 -99 -117 0 -42 41 -106 80 -125 43 -22
111 -23 150 -3 53 27 63 133 18 190 -34 44 -102 69 -149 55z"/>
<path d="M11341 5822 c-34 -34 -65 -113 -88 -229 -25 -127 -25 -427 1 -538 23
-103 59 -179 97 -205 174 -124 829 -351 1061 -367 84 -6 89 -5 122 21 74 56
216 293 216 361 0 73 -36 54 -147 -77 -43 -50 -90 -105 -104 -121 l-26 -30
-54 25 c-152 70 -370 233 -493 371 -161 179 -257 335 -363 586 -89 213 -154
272 -222 203z"/>
<path d="M12455 4165 c-22 -8 -52 -28 -67 -45 -24 -26 -28 -39 -28 -91 0 -73
10 -93 51 -108 105 -36 205 20 216 121 11 92 -78 155 -172 123z"/>
</g>
</svg>
