<?xml version="1.0" standalone="no"?>
<!DOCTYPE svg PUBLIC "-//W3C//DTD SVG 20010904//EN"
 "http://www.w3.org/TR/2001/REC-SVG-20010904/DTD/svg10.dtd">
<svg version="1.0" xmlns="http://www.w3.org/2000/svg"
 width="992.000000pt" height="1084.000000pt" viewBox="0 0 992.000000 1084.000000"
 preserveAspectRatio="xMidYMid meet">
<metadata>
Created by potrace 1.16, written by Peter Selinger 2001-2019
</metadata>
<g transform="translate(0.000000,1084.000000) scale(0.100000,-0.100000)"
fill="#000000" stroke="none">
<path d="M3705 10550 c-289 -9 -473 -64 -700 -206 -360 -225 -559 -439 -620
-664 -10 -36 -22 -72 -26 -81 -5 -9 -52 -48 -106 -87 -113 -81 -261 -214 -359
-323 -153 -168 -318 -433 -359 -574 -9 -33 -26 -87 -36 -121 -28 -88 -27 -317
2 -468 33 -175 139 -369 299 -550 33 -38 158 -138 229 -183 85 -55 244 -127
358 -163 60 -18 181 -43 295 -60 l193 -29 30 -38 c69 -89 124 -132 232 -185
l108 -53 140 -3 c163 -4 165 -6 165 -93 0 -60 28 -194 60 -289 10 -30 60 -217
110 -415 51 -198 112 -435 136 -527 24 -93 41 -174 38 -181 -3 -8 -40 -30 -83
-49 -69 -31 -81 -40 -92 -71 -10 -29 -19 -37 -48 -42 -20 -4 -108 -32 -196
-62 l-160 -56 -170 -6 -170 -6 -92 -48 c-84 -44 -95 -54 -140 -120 -89 -129
-120 -243 -110 -391 13 -190 59 -277 207 -391 101 -79 104 -81 140 -165 48
-111 75 -168 245 -520 151 -312 178 -381 201 -498 21 -109 18 -191 -10 -280
-14 -42 -28 -98 -31 -124 -3 -26 -10 -50 -16 -53 -18 -12 -8 -69 21 -121 29
-52 29 -53 14 -99 -13 -38 -14 -54 -4 -92 13 -53 27 -75 122 -191 37 -46 68
-89 68 -96 0 -7 -7 -21 -15 -32 -20 -26 -19 -47 5 -91 11 -21 20 -55 20 -76 0
-21 6 -50 14 -65 33 -66 98 -306 117 -432 11 -74 29 -171 41 -215 48 -182 87
-214 343 -281 518 -134 1170 -207 1510 -169 22 3 164 18 315 35 583 64 1016
196 1084 329 30 59 76 212 85 287 16 130 168 865 190 920 11 29 31 127 46 219
24 158 25 169 9 193 -12 18 -16 45 -15 96 1 39 -8 152 -19 251 -11 99 -23 248
-26 330 -5 138 -9 160 -45 276 -21 69 -39 144 -39 166 0 47 -31 180 -84 363
-30 104 -36 139 -36 221 0 102 -14 159 -63 254 -46 90 -130 151 -309 225 -42
17 -82 38 -89 46 -7 8 -11 34 -11 58 3 63 -74 281 -129 367 -23 36 -29 57 -29
100 -1 107 -26 158 -161 326 l-67 83 -26 142 c-25 133 -41 201 -126 523 -65
248 -200 499 -390 728 -74 89 -134 141 -338 296 -130 100 -137 112 -66 126 69
12 210 82 374 184 91 57 179 116 195 131 17 15 57 47 90 71 230 166 402 424
460 692 25 115 17 278 -18 376 -64 180 -201 365 -400 539 -177 154 -300 238
-511 349 l-145 75 -63 87 c-148 204 -396 406 -658 536 -89 45 -256 100 -325
108 -22 3 -58 12 -80 20 -43 17 -149 19 -500 7z m402 -100 c35 -6 75 -15 89
-20 25 -10 26 -12 10 -29 -21 -23 -20 -38 4 -51 11 -6 20 -18 20 -28 0 -9 9
-30 20 -47 11 -16 20 -39 20 -51 0 -11 11 -30 24 -43 12 -12 29 -39 36 -60 18
-57 72 -77 118 -45 37 26 24 84 -20 84 -20 0 -24 20 -6 38 16 16 -7 42 -38 42
-32 0 -38 16 -12 34 21 15 21 16 3 49 -10 19 -15 42 -12 51 9 22 59 21 89 -3
13 -11 37 -21 53 -23 20 -2 31 -9 33 -22 2 -10 37 -59 78 -108 74 -89 90 -117
57 -103 -10 5 -32 10 -49 12 -42 6 -51 -18 -23 -63 11 -19 18 -41 15 -49 -8
-21 -97 -19 -237 4 -239 40 -704 34 -971 -12 -148 -26 -158 -24 -158 25 0 72
-47 106 -99 69 -16 -12 -34 -21 -40 -21 -26 0 -6 37 59 109 72 80 81 100 55
121 -21 17 -19 28 8 36 12 3 29 12 37 19 8 7 35 15 58 19 24 4 62 16 85 28 38
19 47 20 102 9 61 -12 132 -1 181 27 24 14 327 15 411 2z m-1007 -176 c0 -8
-18 -36 -39 -62 -50 -59 -111 -160 -111 -183 0 -33 -20 -31 -35 4 -15 36 -35
50 -59 41 -7 -3 -44 -68 -81 -145 -37 -77 -70 -137 -74 -134 -3 4 -6 23 -6 43
0 35 -2 37 -39 42 -22 3 -41 10 -43 16 -6 20 245 234 405 346 75 52 82 55 82
32z m1160 -349 c295 -18 349 -24 375 -41 11 -8 44 -14 75 -14 70 0 270 -60
503 -150 112 -43 118 -49 132 -113 9 -42 33 -45 62 -9 l24 32 67 -34 c37 -19
97 -54 134 -78 38 -23 83 -52 100 -63 28 -17 34 -27 36 -63 4 -50 24 -67 92
-77 57 -8 78 -21 174 -114 140 -136 219 -256 255 -391 11 -41 27 -95 36 -120
12 -33 15 -61 10 -105 -9 -90 -17 -97 -60 -55 -41 39 -57 33 -60 -25 -4 -48
-11 -53 -38 -27 -51 48 -116 54 -152 16 -35 -38 -34 -87 3 -112 49 -34 79 -36
107 -6 l25 27 21 -27 c32 -41 61 -32 78 24 17 55 20 58 31 40 11 -17 3 -56
-16 -85 -8 -11 -14 -33 -14 -50 0 -49 -13 -60 -44 -40 -31 21 -72 13 -81 -15
-9 -27 -19 -25 -34 6 -7 17 -17 24 -26 20 -8 -3 -22 -9 -30 -12 -9 -4 -15 0
-15 9 0 19 -47 57 -63 51 -18 -7 -70 -108 -66 -128 2 -11 11 -22 19 -26 8 -3
34 -16 56 -28 29 -15 52 -19 76 -15 21 3 38 1 42 -6 4 -6 20 -11 37 -11 16 0
29 -2 29 -5 0 -3 -16 -30 -37 -61 l-36 -55 -46 6 c-94 12 -91 10 -85 58 7 53
-8 69 -74 77 -44 5 -45 6 -58 55 -7 28 -47 115 -88 194 -42 79 -76 154 -76
166 0 36 22 46 92 43 63 -3 63 -3 66 26 3 25 -12 44 -112 146 -64 64 -116 124
-116 133 0 14 11 17 59 17 34 0 78 8 107 19 27 11 70 22 96 26 44 6 48 9 57
42 13 48 38 73 72 73 32 0 54 29 44 59 -9 28 -141 151 -162 151 -24 0 -41 -14
-82 -67 -23 -30 -44 -46 -71 -53 -33 -9 -41 -16 -49 -47 -8 -29 -7 -42 4 -60
9 -13 20 -23 25 -23 6 0 10 -4 10 -8 0 -5 -48 -14 -106 -20 -127 -14 -134 -12
-255 80 -47 36 -98 69 -114 75 -39 13 -40 43 -2 61 42 20 43 38 3 82 -20 22
-36 47 -36 55 0 8 18 26 40 40 41 26 52 59 28 83 -18 18 -29 15 -94 -24 -98
-59 -227 -122 -266 -129 -68 -13 -73 -6 -74 94 l-1 90 36 9 c24 6 35 14 32 23
-2 8 -6 22 -8 32 -5 14 2 17 45 17 33 0 54 5 62 16 8 8 28 21 47 29 24 10 33
20 33 38 0 30 -44 75 -79 83 -14 3 -41 12 -59 20 -67 29 -77 18 -73 -82 2 -75
-3 -86 -50 -97 -15 -4 -47 -33 -78 -72 -30 -36 -62 -70 -72 -76 -25 -13 -24
-33 4 -52 16 -11 19 -18 11 -27 -9 -9 -18 -8 -40 3 -16 8 -48 20 -71 26 -49
14 -48 24 7 65 50 37 59 62 32 88 -27 28 -55 19 -117 -38 -92 -83 -53 -78
-440 -64 -190 7 -360 9 -379 6 -29 -6 -41 -1 -82 30 l-48 37 -71 -14 c-68 -14
-70 -15 -90 -57 -14 -30 -28 -44 -45 -48 -14 -3 -55 -14 -92 -26 -40 -12 -75
-17 -90 -13 -30 9 -191 118 -241 162 -48 43 -87 43 -102 -1 -8 -25 -7 -31 13
-45 13 -9 49 -37 80 -62 31 -25 69 -53 84 -63 21 -14 25 -22 19 -35 -5 -9 -86
-52 -181 -96 -94 -43 -176 -85 -182 -92 -15 -19 -28 -16 -28 5 0 11 16 33 35
51 38 34 43 56 20 87 -20 27 -19 32 14 39 34 7 111 77 111 100 0 8 -12 22 -26
32 -35 22 -74 107 -74 159 0 50 -14 42 265 149 78 29 182 69 233 89 99 39 147
45 178 21 29 -22 56 -18 107 16 44 29 47 29 75 15 29 -15 31 -14 78 20 l49 36
170 -7 c94 -3 280 -12 415 -20z m-1710 -388 c0 -7 -9 -20 -20 -30 -14 -11 -20
-29 -20 -56 0 -33 5 -44 33 -64 17 -14 41 -27 51 -28 31 -6 21 -22 -22 -35
-43 -12 -104 -56 -128 -92 -22 -33 -9 -62 26 -62 20 0 35 -8 45 -24 9 -13 29
-26 45 -30 17 -3 30 -9 30 -14 0 -4 -40 -36 -89 -70 l-90 -62 -145 -3 c-165
-2 -174 -6 -156 -61 6 -20 8 -40 5 -46 -9 -14 -72 24 -105 63 -33 37 -54 32
-98 -25 -40 -51 -48 -81 -33 -114 9 -21 16 -24 43 -19 18 3 69 1 113 -3 108
-12 125 -5 125 52 0 55 14 61 106 51 45 -5 64 -11 64 -20 0 -23 -106 -229
-127 -246 -41 -36 -102 -62 -160 -70 -69 -10 -148 -42 -157 -64 -3 -8 3 -24
13 -36 l18 -23 82 18 c86 19 111 17 111 -9 0 -27 -107 -229 -139 -264 l-30
-33 -41 23 c-46 26 -63 18 -66 -29 -3 -62 -4 -72 -14 -72 -5 0 -10 13 -10 29
0 29 -22 61 -41 61 -5 0 -36 -14 -69 -30 l-60 -30 0 -54 c0 -30 -3 -61 -6 -70
-12 -31 -24 -15 -24 32 0 30 -7 58 -20 77 -11 17 -20 43 -20 59 0 25 3 27 23
21 67 -21 76 -19 92 19 13 30 19 35 39 30 17 -4 27 1 40 21 17 26 18 26 38 8
19 -17 20 -17 34 2 8 10 14 37 14 59 0 92 -22 108 -113 82 -30 -9 -67 -16 -81
-16 -35 0 -66 -33 -66 -70 0 -16 -4 -30 -10 -30 -18 0 -11 120 11 194 58 198
133 383 171 423 12 13 33 23 49 23 25 0 28 4 35 45 6 43 8 45 40 45 40 0 56
23 53 79 -2 24 4 50 16 67 38 59 235 237 370 333 124 89 145 101 183 101 27 0
42 -4 42 -13z m1248 -186 c20 -11 76 -52 123 -93 182 -155 355 -307 379 -332
30 -33 29 -33 -95 -78 -59 -21 -108 -47 -142 -75 -29 -24 -62 -43 -73 -43 -28
0 -54 44 -191 336 -133 282 -138 304 -73 304 19 0 51 -9 72 -19z m-672 -270
c57 -59 134 -146 169 -192 36 -46 90 -113 121 -149 124 -145 242 -334 409
-655 169 -324 203 -295 150 125 -20 160 -25 224 -17 232 8 8 25 -1 61 -32 l51
-42 0 -139 c0 -121 2 -140 17 -146 27 -10 51 31 64 112 11 72 16 80 48 75 52
-7 75 25 46 64 -29 38 -19 63 42 103 l56 38 116 0 c142 0 165 -11 228 -105 51
-77 65 -89 97 -83 33 7 63 -28 76 -90 11 -54 55 -121 71 -111 6 3 14 17 19 30
5 13 16 24 23 24 11 0 15 -36 20 -173 4 -127 10 -185 22 -215 19 -45 28 -50
52 -27 24 24 33 8 33 -59 0 -70 -32 -211 -62 -271 -61 -121 -182 -248 -418
-438 -186 -149 -231 -175 -355 -207 -98 -25 -166 -25 -279 0 -50 11 -113 20
-140 20 -53 0 -340 72 -434 108 -73 28 -143 75 -179 119 -16 21 -56 82 -89
136 -32 55 -89 137 -126 183 -132 165 -170 235 -126 234 7 0 28 -22 46 -49 18
-27 62 -77 99 -112 61 -59 66 -62 79 -45 17 24 2 63 -55 142 -49 68 -60 118
-62 267 -1 156 24 201 149 260 105 49 184 31 312 -72 69 -56 90 -57 90 -4 0
47 -41 86 -143 136 -130 63 -154 66 -247 33 -95 -33 -120 -30 -120 19 0 18 -9
54 -20 80 -39 91 -18 122 74 112 67 -7 209 -54 266 -88 65 -40 83 -43 105 -19
15 16 17 25 9 38 -18 28 -115 90 -191 122 -64 27 -82 30 -175 30 -68 0 -110 4
-121 13 -18 13 -19 59 -18 540 l1 237 26 0 c20 0 50 -25 130 -109z m1365 -348
c40 -49 95 -112 122 -141 52 -56 57 -78 10 -46 -24 16 -46 19 -153 18 -112 -1
-131 -3 -180 -26 -30 -14 -66 -38 -79 -52 -32 -34 -51 -33 -87 7 -32 34 -84
111 -84 125 0 4 21 28 48 54 38 37 64 52 141 78 52 17 111 40 130 50 20 11 41
19 48 20 7 0 45 -39 84 -87z m-1701 -247 c0 -7 9 -25 20 -39 41 -52 35 -180
-6 -146 -35 29 -60 199 -29 199 8 0 15 -6 15 -14z m135 -300 c14 -29 41 -69
60 -87 19 -19 35 -37 35 -40 0 -3 -21 -32 -46 -65 -25 -32 -50 -69 -55 -81 -5
-13 -12 -23 -17 -23 -8 0 -82 224 -82 247 0 10 68 103 75 103 3 0 16 -24 30
-54z m2874 -119 c47 -17 60 -40 37 -66 -28 -31 -14 -65 33 -83 21 -9 44 -25
50 -36 16 -31 -4 -37 -42 -13 l-33 20 -20 -20 -20 -20 -26 21 c-35 27 -42 26
-85 -14 -51 -45 -80 -59 -109 -52 -28 7 -30 23 -7 70 14 30 21 35 47 33 l31
-2 9 80 c5 44 14 83 20 87 16 11 76 8 115 -5z m-322 -32 c14 -30 15 -41 5 -68
-7 -19 -12 -59 -12 -91 0 -71 -41 -195 -82 -248 -34 -43 -167 -153 -198 -163
-30 -9 -32 -3 -14 34 9 18 14 41 11 52 -4 14 8 35 39 70 44 49 44 50 44 124 0
65 -3 77 -25 101 -29 32 -31 41 -8 66 26 29 50 22 63 -18 22 -67 90 -69 90 -2
0 35 -14 63 -49 101 -22 24 -23 29 -11 37 8 5 29 10 46 10 17 0 37 7 44 15 20
24 39 17 57 -20z m-3366 -58 c13 -49 -3 -76 -75 -125 -114 -78 -138 -132 -57
-132 54 0 60 -16 13 -35 -90 -36 -107 -49 -104 -75 8 -51 87 -140 125 -140 8
0 22 9 32 20 14 16 20 17 27 8 12 -20 10 -118 -3 -118 -22 0 -149 94 -201 148
-103 109 -218 295 -218 353 0 29 13 39 25 19 8 -14 42 -13 51 2 4 6 7 26 6 45
-1 18 3 33 8 33 6 0 10 -8 10 -19 0 -35 25 -44 106 -39 64 4 88 11 152 45 42
23 81 40 86 39 6 -1 13 -14 17 -29z m249 -407 c15 -27 5 -54 -35 -99 -18 -20
-49 -62 -69 -93 -37 -58 -57 -69 -100 -52 -22 9 -20 34 3 34 30 0 78 55 118
134 52 104 63 114 83 76z m288 -122 c19 -29 19 -35 6 -59 -8 -16 -14 -45 -14
-66 0 -43 -32 -103 -55 -103 -26 0 -30 49 -7 94 12 25 18 53 15 69 -8 39 6 97
21 97 8 0 23 -14 34 -32z m2452 -160 c0 -30 23 -91 41 -109 38 -38 89 -16 89
40 0 12 4 21 8 21 16 0 197 -152 290 -243 96 -94 193 -207 248 -287 107 -157
203 -406 319 -833 50 -185 52 -199 29 -217 -44 -37 -41 -45 69 -158 95 -98
137 -153 137 -182 0 -18 -26 -11 -49 14 -36 39 -189 94 -296 106 -110 14 -309
12 -323 -2 -9 -9 -12 -9 -12 1 0 22 85 101 108 101 25 0 39 35 22 55 -18 22
-31 20 -201 -30 -173 -50 -194 -54 -186 -27 4 14 179 417 244 562 32 71 34 82
22 96 -20 24 -49 15 -102 -31 -81 -70 -94 -62 -71 46 37 174 -27 407 -155 565
-65 80 -135 119 -216 118 -79 0 -134 -26 -212 -98 l-62 -57 -21 40 -20 41 79
157 c94 190 221 367 221 311z m-2035 -189 c18 -32 57 -88 85 -124 28 -36 48
-70 45 -75 -11 -17 -119 46 -166 97 -61 64 -72 88 -65 128 12 64 54 53 101
-26z m1672 -203 c-9 -23 -223 -339 -246 -363 -12 -13 -30 -23 -39 -23 -19 0
-162 137 -162 156 0 38 108 20 156 -27 21 -21 38 -29 49 -25 17 6 17 15 -1
104 -4 19 -2 32 4 32 6 0 34 22 64 49 88 81 190 137 175 97z m488 -116 c77
-71 155 -223 155 -299 0 -29 7 -77 16 -107 14 -49 14 -61 0 -123 -10 -45 -14
-90 -10 -128 4 -42 0 -79 -15 -137 -12 -44 -21 -103 -21 -130 0 -30 -9 -70
-21 -96 -12 -26 -29 -104 -40 -185 -18 -128 -59 -339 -108 -555 -10 -47 -40
-130 -66 -185 l-47 -100 5 -95 c3 -52 8 -105 12 -117 6 -18 -4 -34 -55 -88
-35 -36 -69 -65 -75 -65 -7 0 -34 12 -60 27 -55 30 -140 53 -202 53 -34 0 -46
5 -59 25 -14 22 -15 36 -6 103 12 83 12 87 72 707 22 226 47 475 55 555 8 80
22 223 31 319 9 96 22 193 30 214 8 22 14 58 14 81 0 72 45 184 103 256 69 86
102 102 194 98 60 -3 76 -7 98 -28z m-1481 -75 c27 -8 77 -17 110 -20 287 -26
309 -31 352 -76 16 -17 71 -65 122 -106 50 -41 92 -78 92 -81 0 -4 -22 -36
-50 -71 -27 -35 -54 -79 -61 -98 -13 -42 -5 -96 23 -141 25 -41 15 -55 -42
-55 -22 0 -42 2 -44 4 -1 2 -37 75 -79 161 -66 136 -82 161 -121 190 -25 18
-124 92 -220 163 -97 72 -176 133 -176 138 0 11 41 8 94 -8z m956 -72 c0 -16
-7 -50 -15 -77 -8 -27 -15 -86 -15 -130 0 -85 -7 -126 -21 -126 -4 0 -20 11
-35 25 -15 14 -48 31 -73 39 -25 7 -46 17 -48 22 -2 5 34 58 80 118 45 60 88
120 95 133 18 31 32 29 32 -4z m-839 -190 l185 -142 48 -123 c27 -68 120 -303
208 -523 154 -385 160 -405 188 -555 25 -141 50 -341 65 -525 7 -94 -5 -118
-67 -126 -75 -11 -160 -63 -241 -148 -89 -93 -179 -204 -202 -250 -16 -32 -16
-35 4 -62 31 -41 27 -75 -9 -94 -44 -23 -69 -19 -81 13 -6 15 -20 47 -31 72
-26 57 -35 184 -16 220 7 14 37 38 66 53 28 16 52 34 52 41 0 21 -27 38 -49
31 -28 -9 -88 -58 -122 -101 -35 -45 -39 -101 -9 -165 19 -43 26 -99 14 -112
-11 -11 -33 5 -54 38 -17 28 -20 49 -20 167 0 116 2 137 18 151 32 29 291 146
339 153 65 9 85 21 81 47 -4 27 -30 33 -81 16 -55 -18 -61 -7 -81 163 -29 248
-86 600 -102 622 -8 11 -14 40 -14 64 0 23 -8 59 -18 80 -11 20 -27 84 -36
142 -16 93 -82 369 -136 565 -40 145 -120 445 -120 450 0 8 2 6 221 -162z
m710 -257 c18 -36 29 -71 26 -80 -16 -41 -82 -26 -93 21 -4 15 -16 40 -27 54
-26 35 -10 69 33 69 26 0 33 -7 61 -64z m113 -226 c0 -61 -6 -88 -31 -145 -17
-38 -34 -79 -38 -90 -6 -15 -11 -2 -20 50 -7 39 -27 101 -44 140 -17 38 -29
75 -27 82 3 8 23 13 49 13 28 0 49 6 57 15 7 9 23 15 34 13 19 -3 21 -9 20
-78z m-350 8 c48 -64 96 -152 96 -178 0 -15 9 -53 20 -85 18 -53 19 -95 2 -95
-4 0 -21 18 -39 39 -21 25 -47 81 -73 157 -22 65 -47 125 -55 134 -16 17 -20
42 -8 53 14 14 33 6 57 -25z m1243 -655 c3 -7 -7 -15 -22 -19 -53 -13 -137
-68 -201 -130 -35 -35 -68 -64 -73 -64 -17 0 -21 33 -7 55 40 61 222 177 270
173 16 -2 31 -8 33 -15z m453 -29 c114 -27 258 -111 356 -210 60 -60 104 -123
104 -151 0 -19 -8 -25 -45 -35 -25 -7 -45 -16 -45 -20 0 -5 14 -27 30 -50 20
-28 30 -53 30 -78 0 -29 6 -41 31 -59 48 -36 63 -82 55 -174 -8 -94 -31 -159
-81 -227 -48 -65 -94 -100 -142 -106 -64 -9 -68 -12 -49 -33 22 -24 12 -45
-39 -89 -40 -36 -73 -47 -115 -38 -24 4 -37 -1 -65 -25 -95 -84 -295 -76 -295
11 0 21 34 18 62 -5 35 -29 37 -30 65 -10 14 10 23 28 25 53 3 34 6 37 33 37
29 0 30 2 35 50 4 42 10 53 39 72 27 18 48 23 100 23 74 0 100 10 79 28 -8 6
-26 13 -42 16 -44 8 -41 12 19 25 30 7 61 18 68 25 6 7 23 45 37 84 l24 71
-21 23 c-19 21 -21 31 -16 113 5 87 4 92 -29 155 -29 56 -49 78 -148 157 -116
94 -137 103 -184 82 -20 -10 -30 -9 -51 5 -38 25 -40 42 -11 80 30 40 32 49
11 66 -12 10 -20 7 -44 -19 -17 -18 -39 -31 -53 -31 -34 0 -48 -18 -48 -61 0
-21 -3 -45 -6 -53 -11 -29 -134 -90 -194 -97 -30 -3 -85 -14 -122 -24 -40 -11
-80 -15 -101 -11 -39 7 -73 39 -63 58 24 47 61 98 117 159 54 61 78 79 171
125 133 66 148 68 148 15 0 -44 21 -70 40 -49 6 7 19 26 28 41 11 18 38 37 77
53 118 50 129 51 225 28z m-2114 -290 c72 -64 83 -90 82 -194 0 -36 7 -92 16
-125 9 -32 16 -81 16 -107 0 -41 -5 -54 -33 -85 -53 -57 -69 -47 -176 111
-108 160 -122 173 -353 324 -21 14 -38 29 -38 34 0 10 1 10 85 31 33 8 96 26
140 40 45 15 106 26 138 26 58 1 60 0 123 -55z m2102 -94 c32 -22 91 -73 130
-114 56 -59 71 -82 77 -116 27 -162 -86 -315 -397 -537 -187 -133 -225 -157
-692 -424 l-269 -154 -106 -125 c-123 -146 -213 -240 -229 -240 -6 0 -25 20
-42 45 -47 68 -289 249 -349 261 -16 4 -32 13 -35 21 -12 29 148 289 194 316
15 9 55 23 89 31 71 17 56 5 386 292 132 115 305 265 385 334 80 69 184 160
233 203 100 89 157 127 283 190 116 58 106 55 200 56 79 1 84 0 142 -39z
m-2908 -33 c0 -44 15 -57 69 -57 40 0 48 5 86 46 53 57 56 56 234 -45 144 -82
171 -107 153 -145 -16 -36 18 -83 69 -91 31 -5 45 -15 68 -48 16 -23 38 -51
50 -61 11 -11 21 -23 21 -28 0 -6 -40 -51 -88 -101 -53 -55 -92 -104 -96 -122
-8 -30 -21 -45 -43 -45 -19 0 -203 159 -203 176 0 8 -15 21 -34 29 -20 9 -38
26 -46 44 -7 17 -22 33 -34 37 -11 3 -31 15 -43 26 l-22 21 -31 -27 c-30 -25
-37 -26 -142 -26 l-110 0 -32 -35 c-39 -42 -67 -44 -94 -8 -35 49 -56 -1 -30
-74 10 -29 9 -39 -10 -78 -19 -38 -65 -78 -75 -64 -12 16 -57 203 -57 235 0
82 61 248 115 313 43 51 60 35 29 -27 -9 -18 -14 -49 -12 -74 3 -42 4 -43 35
-40 17 2 34 -2 38 -7 3 -6 20 -11 36 -11 50 0 57 58 14 124 -14 20 -15 32 -7
55 9 25 7 34 -9 55 l-20 25 27 17 c33 22 107 42 157 43 35 1 37 0 37 -32z
m2112 -84 c2 -55 6 -68 21 -71 12 -2 17 3 17 17 0 23 62 95 73 84 12 -11 8
-78 -5 -95 -12 -15 -84 -73 -115 -91 -14 -9 -63 93 -63 132 0 33 35 91 54 91
12 0 16 -16 18 -67z m1506 -338 c54 -16 122 -67 122 -91 0 -49 -215 -177 -314
-187 -32 -3 -58 -1 -62 4 -3 6 5 27 19 48 40 60 75 134 82 174 13 65 57 80
153 52z m-3549 -76 c57 -13 187 -75 271 -130 85 -55 180 -153 209 -214 35 -75
141 -406 141 -442 0 -21 -10 -44 -29 -66 -16 -18 -53 -82 -81 -142 -47 -100
-52 -118 -57 -200 -8 -136 14 -261 57 -325 5 -8 14 -34 20 -57 7 -29 28 -60
68 -102 52 -54 62 -61 110 -67 58 -7 64 -16 27 -40 -21 -14 -48 -15 -215 -8
l-190 7 0 57 c0 150 -50 307 -205 636 -63 135 -115 250 -115 255 0 6 -36 83
-79 172 -128 261 -182 447 -167 577 11 94 33 110 141 103 28 -3 70 -9 94 -14z
m1621 -1 c42 -18 70 -44 70 -64 0 -22 -67 -90 -132 -134 -47 -31 -64 -38 -78
-30 -48 26 -70 5 -70 -66 0 -39 -12 -54 -84 -98 -43 -28 -62 -34 -70 -26 -6 6
-11 50 -12 106 0 100 -10 127 -37 99 -25 -25 -39 -92 -32 -154 l6 -56 -37 -24
-37 -23 -28 33 c-24 30 -28 44 -34 140 -5 69 -3 113 4 126 33 64 184 166 270
184 59 13 261 4 301 -13z m-715 -728 c-20 -44 -73 -99 -165 -172 -109 -86
-141 -138 -106 -168 17 -13 11 -36 -17 -67 -23 -26 -37 -22 -37 10 0 13 -7 32
-15 45 -14 19 -14 28 -2 75 22 84 38 109 97 149 30 21 60 51 67 66 6 15 32 47
57 72 42 41 48 43 68 31 17 -11 22 -11 29 1 5 7 9 17 9 23 0 5 8 2 17 -7 15
-16 15 -20 -2 -58z m2042 52 c6 -4 14 -21 18 -37 4 -17 15 -57 25 -90 10 -33
23 -100 29 -150 6 -49 24 -202 41 -340 17 -137 37 -301 45 -363 21 -157 20
-182 -10 -222 -14 -19 -25 -40 -25 -47 0 -18 -15 -16 -31 3 -11 14 -27 16 -94
11 -45 -3 -101 -11 -126 -17 -25 -6 -65 -10 -89 -8 -68 5 -74 25 -62 201 11
148 6 242 -23 422 -17 107 -59 371 -75 469 -11 65 -5 83 36 115 22 18 41 21
118 22 60 0 110 6 146 19 67 22 63 21 77 12z m307 -144 c77 -79 197 -201 267
-273 l127 -130 16 -253 c18 -281 20 -266 -47 -321 -25 -21 -57 -29 -199 -51
-135 -20 -173 -30 -184 -44 -10 -15 -14 -16 -18 -5 -2 8 -10 124 -16 259 -6
135 -17 277 -25 315 -38 194 -47 253 -52 352 -4 80 -10 117 -24 141 -28 48
-25 152 4 152 6 0 74 -64 151 -142z m-786 64 c7 -5 16 -37 21 -73 5 -35 16
-82 25 -104 11 -29 15 -78 16 -175 0 -97 4 -141 14 -155 10 -15 15 -97 20
-346 4 -180 4 -329 -1 -332 -8 -5 -435 -22 -563 -22 l-75 0 3 398 c3 316 7
404 18 425 8 15 14 38 14 52 0 40 21 61 142 148 62 44 145 105 183 136 64 50
75 55 120 55 28 1 56 -3 63 -7z m-1448 -208 c112 -48 115 -50 192 -137 74 -84
91 -118 68 -132 -6 -4 -48 31 -93 78 -106 109 -197 156 -323 164 -95 7 -109
-3 -65 -44 30 -29 121 -185 121 -209 0 -13 -38 -54 -50 -54 -4 0 -12 12 -19
27 -7 15 -25 43 -42 64 -22 29 -29 47 -29 82 0 49 2 48 -89 60 -33 4 -18 29
56 92 73 63 81 67 118 62 22 -2 92 -26 155 -53z m-10 -120 c45 -23 162 -118
193 -156 43 -54 32 -72 -38 -65 -80 8 -184 79 -236 161 -29 45 -35 63 -27 73
12 15 67 9 108 -13z m835 -478 l-7 -385 -237 -5 c-130 -2 -247 -4 -261 -5 -40
-2 -75 31 -75 69 0 30 5 36 58 64 97 52 168 132 231 260 30 61 73 134 95 161
22 28 58 84 81 125 24 41 54 87 68 103 22 24 28 25 40 13 12 -12 13 -73 7
-400z m-1099 337 c36 -47 38 -61 14 -101 -36 -59 -134 -94 -168 -60 -33 33 -2
133 55 178 39 30 66 25 99 -17z m376 -145 c54 -23 93 -61 85 -82 -9 -24 -40
-19 -108 16 -69 36 -102 74 -78 89 16 10 33 6 101 -23z m-248 16 c61 -23 -51
-154 -132 -154 -100 0 -2 142 110 159 3 1 13 -2 22 -5z m2971 -140 c28 -54 65
-120 83 -147 50 -72 43 -87 -53 -118 -44 -14 -88 -24 -97 -21 -25 6 -31 54
-26 220 6 211 16 218 93 66z m-2845 61 c17 -21 -4 -51 -80 -114 -49 -41 -64
-49 -82 -42 -12 4 -23 12 -25 18 -5 13 141 153 160 153 8 0 20 -7 27 -15z
m-392 -19 c13 -7 33 -30 45 -51 16 -27 33 -42 60 -51 22 -8 48 -25 59 -39 12
-15 34 -27 56 -31 44 -7 112 -62 92 -74 -13 -8 -41 -1 -80 20 -14 7 -30 6 -60
-6 -22 -9 -51 -13 -64 -10 -53 13 -140 139 -153 222 -6 38 5 43 45 20z m480
-33 c14 -26 0 -52 -50 -99 -51 -49 -70 -57 -94 -40 -16 13 -13 19 40 79 71 81
88 91 104 60z m116 -31 c3 -5 -4 -21 -15 -38 -10 -16 -19 -37 -19 -47 0 -29
-45 -67 -80 -67 -45 0 -47 23 -6 73 20 24 36 48 36 54 0 26 70 47 84 25z m-54
-223 c0 -6 -5 -20 -12 -32 -7 -12 -15 -47 -18 -77 -5 -53 -6 -55 -35 -55 -26
0 -30 4 -36 37 -3 20 -11 44 -18 52 -7 8 -11 27 -9 43 3 24 8 29 43 34 65 10
85 10 85 -2z m-262 -157 c7 -51 1 -52 -299 -52 -153 0 -280 4 -283 8 -3 5 4
23 14 40 l20 32 272 -2 273 -3 3 -23z m-128 -92 c13 -8 13 -12 0 -36 -19 -33
-135 -104 -170 -104 -15 0 -58 22 -101 50 -40 27 -82 50 -92 50 -23 0 -34 29
-16 41 19 12 360 11 379 -1z m-381 -80 c51 -39 102 -70 112 -70 20 0 49 -26
49 -44 0 -7 -6 -21 -14 -32 -14 -19 -15 -19 -38 4 -14 12 -36 22 -50 22 -27 0
-104 38 -155 76 -24 18 -33 33 -33 54 0 37 9 60 24 60 6 0 53 -32 105 -70z
m495 44 c27 -10 19 -26 -51 -96 -50 -51 -74 -68 -95 -68 -50 0 -43 21 34 96
76 75 83 79 112 68z m-7 -204 c27 -25 31 -34 23 -53 -5 -12 -20 -50 -34 -85
-27 -68 -58 -101 -93 -102 -16 0 -24 7 -27 23 -11 52 -14 125 -8 162 6 32 14
44 47 62 51 29 54 29 92 -7z m-502 -7 c13 -13 16 -30 13 -75 -6 -76 -16 -86
-57 -53 -26 23 -31 34 -31 70 0 65 38 95 75 58z m120 -40 c14 -14 17 -31 13
-95 -6 -100 -19 -115 -59 -68 -24 28 -29 44 -29 85 0 79 37 117 75 78z m169
-24 c9 -48 7 -155 -4 -184 -8 -22 -15 -26 -42 -23 l-33 3 -9 88 -9 89 29 28
c39 38 60 38 68 -1z m3344 -286 l-5 -148 -83 -294 c-59 -204 -89 -295 -99
-298 -9 -2 -41 -15 -71 -28 -49 -22 -206 -54 -214 -44 -2 2 23 101 56 219 32
118 81 301 109 405 27 105 57 209 65 232 17 47 50 67 129 78 28 3 57 10 65 16
8 5 23 9 34 9 18 0 18 -8 14 -147z m-374 34 c15 -11 15 -17 6 -42 -7 -17 -27
-95 -46 -175 -58 -243 -57 -239 -44 -256 10 -12 7 -28 -20 -86 -18 -39 -39
-100 -47 -135 -18 -86 -48 -155 -84 -189 -25 -24 -42 -30 -97 -35 -37 -4 -88
-15 -113 -25 -39 -15 -51 -16 -74 -6 -26 12 -26 13 -11 37 9 14 16 45 16 71 0
77 89 615 111 666 10 26 19 63 19 83 0 42 12 48 121 64 41 6 97 17 124 25 64
18 117 19 139 3z m-2410 -47 c51 -19 60 -50 67 -222 5 -108 14 -189 29 -251
12 -51 28 -119 36 -152 7 -33 29 -111 49 -172 19 -62 32 -119 29 -127 -9 -23
-38 -25 -121 -5 -43 10 -96 19 -118 19 -54 0 -109 16 -128 38 -21 23 -53 141
-127 472 -34 151 -66 285 -71 298 -7 19 -5 24 17 32 14 6 37 10 52 10 15 0 54
16 87 34 48 28 71 35 117 35 31 1 68 -3 82 -9z m413 -46 l243 -39 0 -225 c0
-248 10 -355 46 -505 13 -55 24 -116 24 -136 0 -60 -11 -63 -167 -45 -198 24
-188 21 -221 75 -46 74 -98 201 -106 255 -3 27 -12 59 -20 71 -30 46 -47 134
-56 290 -13 232 -13 308 3 302 6 -2 121 -22 254 -43z m1499 -26 c-4 -24 -18
-117 -31 -208 -14 -91 -29 -183 -34 -205 -6 -22 -12 -83 -15 -137 -2 -58 -10
-105 -19 -120 -8 -12 -19 -48 -26 -78 -18 -89 -41 -117 -98 -125 -26 -4 -108
-20 -182 -36 -74 -16 -136 -28 -137 -26 -7 6 29 912 35 919 7 8 401 55 475 57
l39 1 -7 -42z m-2488 5 l83 -5 30 -63 c16 -34 29 -73 29 -86 0 -13 9 -53 20
-89 12 -36 27 -87 34 -115 8 -27 33 -114 56 -193 22 -79 40 -157 38 -175 -3
-29 -7 -32 -38 -35 -21 -2 -66 8 -110 25 -63 24 -78 34 -92 63 -9 19 -51 167
-92 329 -41 162 -80 299 -86 305 -5 5 -10 21 -10 34 0 22 3 24 28 17 15 -4 64
-9 110 -12z m1788 -9 l102 -6 -5 -307 c-4 -306 -4 -306 -35 -415 -17 -61 -43
-130 -58 -155 l-26 -46 -95 -8 c-52 -4 -137 -6 -189 -5 l-95 3 -32 195 c-31
187 -32 207 -33 479 l0 284 183 -7 c100 -3 228 -9 283 -12z"/>
<path d="M3949 10385 c-32 -17 -43 -43 -28 -61 13 -16 114 -19 153 -4 32 12
34 43 4 64 -28 20 -94 20 -129 1z"/>
<path d="M3958 9884 c-3 -5 -8 -21 -12 -36 -10 -41 15 -58 85 -58 50 0 64 4
84 25 28 28 31 38 11 54 -17 14 -161 27 -168 15z"/>
<path d="M4286 9864 c-9 -8 -16 -24 -16 -34 0 -11 -9 -24 -20 -30 -24 -13 -26
-52 -5 -70 9 -7 43 -14 77 -14 l61 -1 12 35 c8 23 19 36 33 38 11 2 26 10 32
17 10 12 6 21 -18 45 -27 26 -38 30 -86 30 -36 0 -60 -5 -70 -16z"/>
<path d="M3135 9733 c-14 -15 -25 -32 -25 -36 0 -5 16 -43 36 -85 20 -43 40
-88 44 -102 5 -21 13 -26 46 -28 62 -5 77 13 79 94 1 39 10 88 20 111 27 67
20 73 -84 73 -85 0 -92 -1 -116 -27z"/>
<path d="M4224 9673 c-18 -3 -24 -16 -34 -70 -12 -61 -12 -67 6 -80 12 -9 30
-12 48 -9 37 8 39 10 40 43 1 22 7 29 33 36 34 10 48 39 32 69 -7 14 -20 18
-57 17 -26 -1 -57 -4 -68 -6z"/>
<path d="M3958 9605 c-39 -22 -39 -71 -1 -86 33 -12 87 -4 108 17 19 20 19 27
-2 53 -24 28 -71 35 -105 16z"/>
<path d="M5475 9448 c-42 -49 -51 -74 -34 -94 8 -10 10 -19 4 -21 -67 -24 -81
-59 -39 -98 41 -38 75 -33 149 25 35 28 71 50 78 50 24 0 40 28 33 55 -4 17
-29 40 -76 70 -39 25 -74 45 -79 45 -5 0 -21 -15 -36 -32z"/>
<path d="M6198 8799 c-10 -5 -21 -28 -24 -49 -8 -52 -18 -51 -30 3 -12 55 -40
61 -78 16 -15 -17 -28 -30 -30 -28 -2 2 -9 14 -15 27 -15 28 -32 28 -59 -1
-37 -39 -23 -132 23 -157 33 -18 73 -5 81 25 8 31 20 32 35 3 6 -13 13 -25 15
-27 2 -2 17 11 33 28 29 31 31 32 60 17 53 -28 78 1 66 75 -7 38 -34 79 -52
79 -5 0 -16 -5 -25 -11z"/>
<path d="M2183 9261 c-61 -39 -103 -86 -103 -115 0 -23 29 -35 63 -25 25 7 34
5 53 -16 23 -25 23 -25 60 -8 l36 18 23 -29 c26 -33 50 -32 78 6 41 55 13 121
-63 149 -26 10 -47 25 -51 38 -11 29 -27 27 -96 -18z"/>
<path d="M1746 8697 c-62 -61 -78 -107 -50 -138 23 -26 48 -24 68 6 l16 24 34
-19 33 -20 27 21 c15 12 47 24 71 27 36 4 46 9 53 31 19 55 -16 91 -90 91 -24
0 -52 7 -62 15 -31 23 -44 19 -100 -38z"/>
<path d="M4378 8301 c-53 -34 -68 -56 -68 -101 0 -70 51 -119 129 -122 51 -2
82 19 105 70 23 51 16 96 -22 140 -40 48 -84 52 -144 13z"/>
<path d="M4766 8008 c-118 -119 -177 -149 -321 -163 -38 -4 -77 -11 -86 -16
-23 -12 -30 -44 -14 -66 11 -15 18 -16 65 -5 28 7 85 12 125 12 67 0 78 3 107
28 18 16 69 56 114 90 94 71 130 125 98 149 -28 21 -44 16 -88 -29z"/>
<path d="M3324 7881 c-48 -22 -54 -34 -54 -112 0 -66 16 -90 76 -115 53 -22
68 -17 124 41 48 52 52 59 45 92 -9 52 -31 79 -76 97 -50 20 -65 20 -115 -3z"/>
<path d="M4790 7855 c-23 -24 -100 -69 -222 -131 -104 -52 -188 -99 -188 -104
0 -16 40 -31 63 -24 77 24 422 248 422 275 0 29 -40 20 -75 -16z"/>
<path d="M4751 7700 c-13 -11 -34 -20 -47 -20 -15 0 -45 -19 -79 -50 -64 -58
-70 -61 -415 -218 -170 -78 -337 -145 -467 -189 -240 -81 -242 -83 -192 -170
49 -85 85 -121 163 -161 l71 -36 200 -7 c198 -7 201 -7 252 17 28 13 64 24 78
24 35 0 227 82 291 125 71 46 230 200 259 249 13 23 38 79 55 126 28 79 30 89
19 135 -14 60 -65 176 -82 187 -23 14 -82 8 -106 -12z m64 -86 c28 -30 49 -88
41 -109 -3 -9 -18 -15 -36 -15 -19 0 -111 -44 -267 -130 -131 -72 -292 -151
-362 -178 -318 -125 -449 -172 -474 -172 -35 0 -77 41 -77 74 0 20 6 27 28 31
85 18 173 48 412 143 330 131 508 225 638 336 30 25 58 46 63 46 6 0 21 -12
34 -26z m20 -224 c10 -17 -52 -124 -102 -174 -63 -63 -107 -93 -231 -155 -90
-45 -128 -57 -287 -92 -192 -41 -299 -50 -308 -25 -8 19 18 39 78 61 87 31
402 178 620 288 116 59 213 106 217 107 4 0 9 -4 13 -10z"/>
<path d="M3804 7555 c-25 -38 -12 -91 32 -136 21 -21 50 -43 66 -48 25 -9 32
-7 55 19 14 17 32 30 39 30 20 0 54 41 54 66 0 26 -24 49 -42 38 -7 -4 -24
-20 -37 -36 -13 -15 -29 -28 -36 -28 -17 0 -55 44 -55 64 0 54 -48 74 -76 31z"/>
<path d="M3475 7462 c-88 -41 -111 -47 -190 -51 l-90 -6 -3 -31 c-5 -46 11
-52 128 -45 99 6 109 9 167 44 68 41 116 91 111 115 -5 25 -18 22 -123 -26z"/>
<path d="M5441 5091 c-20 -21 -48 -41 -62 -45 -29 -6 -39 -34 -29 -76 7 -31
34 -33 38 -2 3 20 7 22 38 16 42 -8 60 6 69 49 3 18 11 42 18 55 9 19 8 25 -3
32 -24 15 -30 12 -69 -29z"/>
</g>
</svg>
